<svg width="20" height="21" viewBox="0 0 20 21" fill="none" xmlns="http://www.w3.org/2000/svg">
<path d="M2.975e-05 3.01363L3.03858e-05 17.5594C3.04585e-05 19.221 1.31442 20.5731 2.92972 20.5731L17.0703 20.5731C18.6856 20.5731 20 19.221 20 17.5594L20 11.492L12.9297 11.492L12.9297 13.9029L9.41409 13.9029L9.41409 11.492L7.03128 11.492C5.09265 11.492 3.51566 9.8698 3.51565 7.87562L3.51565 4.21908L7.03128 4.21908L7.03128 7.87562L9.41409 7.87562L9.41409 4.21908L12.9297 4.8218L12.9297 7.87562L20 7.87562L20 3.01363C20 1.35205 18.6856 -8.44617e-06 17.0703 -8.37556e-06L2.92972 -7.75746e-06C1.31442 -7.68685e-06 2.96774e-05 1.35205 2.975e-05 3.01363Z" fill="white"/>
</svg>
