<svg width="46" height="68" viewBox="0 0 46 68" fill="none" xmlns="http://www.w3.org/2000/svg">
<path d="M4.16571 62.4337L0 13.5789H45.7746L41.6044 62.426L22.8592 67.8599L4.16571 62.4337Z" fill="#E53D20"/>
<path d="M22.8873 63.7065L38.0343 59.3157L41.598 17.5735H22.8873V63.7065Z" fill="#F15123"/>
<path d="M22.8873 35.6932H15.3044L14.7806 29.5573H22.8873V23.5655H22.8675H8.51785L8.65507 25.1729L10.0635 41.6848H22.8873V35.6932Z" fill="#EDEDED"/>
<path d="M22.8873 51.2544L22.8622 51.2615L16.4802 49.4595L16.072 44.6808H12.9709H10.3195L11.1224 54.0889L22.8609 57.4961L22.8873 57.4885V51.2544Z" fill="#EDEDED"/>
<path d="M4.25882 0.302364H7.17105V3.31077H9.83493V0.302364H12.7473V9.4126H9.83505V6.36202H7.17118V9.4126H4.25903V0.302364H4.25882Z" fill="white"/>
<path d="M16.5769 3.32347H14.0131V0.302364H22.0541V3.32347H19.4892V9.4126H16.5771V3.32347H16.5769Z" fill="white"/>
<path d="M23.3303 0.302364H26.3669L28.2348 3.5034L30.1008 0.302364H33.1386V9.4126H30.2384V4.89705L28.2348 8.13629H28.1848L26.1798 4.89705V9.4126H23.3303V0.302364Z" fill="white"/>
<path d="M34.588 0.302364H37.501V6.40132H41.5963V9.4126H34.588V0.302364Z" fill="white"/>
<path d="M22.8675 35.6932V41.6848H29.9239L29.2588 49.4558L22.8675 51.2596V57.4933L34.6153 54.0889L34.7014 53.0767L36.0481 37.3021L36.1879 35.6932H34.6437H22.8675Z" fill="white"/>
<path d="M22.8675 23.5656V29.5575H36.691H36.7093L36.8243 28.2106L37.0854 25.1731L37.2224 23.5656H22.8675Z" fill="white"/>
</svg>
