<svg width="162" height="39" viewBox="0 0 162 39" fill="none" xmlns="http://www.w3.org/2000/svg">
<path fill-rule="evenodd" clip-rule="evenodd" d="M154.373 3.70544L161.139 3.74408C161.139 3.74408 148.56 21.4599 147.533 22.9037C147.199 23.3713 146.692 23.8755 146.435 24.5005C145.786 26.0719 145.119 29.5186 145.119 29.5186L138.928 29.5504C138.928 29.5504 139.891 25.9579 139.852 24.0442C139.817 22.3724 138.996 20.7028 138.535 19.0262C138.07 17.3293 137.438 14.0082 137.438 14.0082H143.802L144.68 17.6577L154.373 3.70544Z" fill="white"/>
<path fill-rule="evenodd" clip-rule="evenodd" d="M141.561 7.44144C142.81 8.2239 143.576 12.5393 143.576 12.5393C143.576 12.5393 137.043 12.6395 133.487 12.6395H130.415L126.684 29.5184H120.979C120.979 29.5184 124.529 11.1754 125.368 7.84974C125.64 6.77329 127.229 6.9578 129.912 6.9578H134.198C136.966 6.9578 140.201 6.59072 141.561 7.44144Z" fill="white"/>
<path fill-rule="evenodd" clip-rule="evenodd" d="M114.998 15.6621C114.998 15.6621 115.176 14.5786 114.395 13.3241C113.728 12.2544 113.111 12.0058 111.356 11.9488C106.398 11.7869 106.494 15.6051 106.494 15.6051L114.998 15.6621ZM120.375 11.2897C121.102 14.0132 119.717 20.4132 119.717 20.4132C119.717 20.4132 112.485 20.2877 108.525 20.4132C107.293 20.4522 105.819 20.2741 105.452 20.8695C104.936 21.7041 105.64 22.9886 106.238 23.5312C106.925 24.1562 108.263 24.227 108.744 24.2908C111.959 24.7152 118.688 24.4002 118.688 24.4002L117.522 29.7648C117.522 29.7648 108.013 30.26 103.257 29.0805C102.318 28.848 101.438 28.3782 100.843 27.712C100.681 27.5298 100.54 27.2812 100.387 27.0667C100.264 26.8954 99.9065 26.3322 99.7461 25.8872C98.6599 22.8788 99.8734 17.115 101.063 14.0267C101.201 13.6686 101.374 13.2149 101.557 12.8292C101.785 12.3481 101.978 11.8052 102.16 11.5177C102.283 11.3193 102.435 11.1915 102.562 11.0044C102.709 10.7832 102.88 10.5687 103.038 10.3775C103.477 9.84811 103.975 9.47394 104.574 9.00897C106.556 7.46692 110.142 6.2694 114.45 6.72793C116.071 6.90116 118.521 7.5033 119.717 9.23695C120.037 9.69999 120.195 10.619 120.375 11.2897Z" fill="white"/>
<path fill-rule="evenodd" clip-rule="evenodd" d="M94.2048 6.93733L99.7373 6.9032C99.7373 6.9032 96.6541 22.1055 95.0828 29.5185H88.7183C84.2701 29.5185 80.3089 30.091 78.6235 26.7812C76.9886 23.5677 78.5488 18.2827 79.2818 14.6924C79.7998 12.1515 80.8907 6.95794 80.8907 6.95794L86.6228 6.9032C86.6228 6.9032 85.0031 14.9889 84.3293 19.0262C84.0879 20.4723 83.5901 21.834 84.1099 22.9037C84.6037 23.9212 85.2949 23.994 87.4016 24.0442C88.069 24.0603 90.2547 24.0442 90.2547 24.0442L94.2048 6.93733Z" fill="white"/>
<path fill-rule="evenodd" clip-rule="evenodd" d="M68.3091 17.8856C68.8884 15.7463 69.7332 13.4266 69.6257 11.4991C69.5096 9.43733 67.8462 7.56008 66.773 7.16563C63.5405 5.97938 60.5142 7.63768 59.3116 8.99008C57.7554 10.7421 57.2287 12.7881 56.6779 15.6049C56.2677 17.6963 55.9318 19.9043 56.6779 21.5352C57.9989 24.4184 62.1181 23.7889 66.5534 23.8162C67.2117 21.9824 67.756 19.9226 68.3091 17.8856ZM75.9902 9.44635C76.6222 14.2226 74.1973 19.494 72.5271 24.0783C74.2301 24.2381 75.7225 24.0536 75.83 24.1856C75.9418 24.3569 74.6887 29.6576 74.2518 29.6712C72.9001 29.7079 68.4212 29.7465 66.5534 29.7465C60.4591 29.7465 54.7577 30.1593 51.8501 27.0095C50.6694 25.7299 49.8531 23.5355 49.6554 21.9915C49.3261 19.4139 49.7388 16.5764 50.3138 14.2364C50.8339 12.1241 51.501 10.1306 52.5085 8.30583C55.0693 3.65969 59.5244 0.211073 66.9924 1.00706C68.4407 1.16226 70.5211 1.82139 71.8204 2.60353C71.9103 2.65859 72.2244 2.91845 72.2966 2.96417C74.0523 4.1253 75.6522 6.89643 75.9902 9.44635Z" fill="white"/>
<path fill-rule="evenodd" clip-rule="evenodd" d="M49.0256 6.96475C48.6569 8.70967 48.2882 10.6874 47.8997 12.4117H41.7549C42.2311 10.5003 42.5955 8.60019 43.0716 6.93738C45.038 6.93738 46.8662 6.96475 49.0256 6.96475Z" fill="white"/>
<path fill-rule="evenodd" clip-rule="evenodd" d="M41.5356 14.0083H47.4607C46.6862 18.4654 45.1523 25.6547 43.9496 30.6589C43.1968 33.7907 42.6943 36.0762 40.6576 37.7297C40.4754 37.8781 40.3704 37.8076 40.2189 37.958C39.8434 38.3299 38.1075 38.7611 37.1465 38.8702C35.5838 39.046 33.8173 38.8931 31.8971 38.8522C32.3996 36.9431 32.9681 34.6507 33.4158 32.94C38.0967 33.5286 38.2154 28.9301 39.1215 24.5007C39.6461 21.9414 41.2351 15.0348 41.5356 14.0083Z" fill="white"/>
<path fill-rule="evenodd" clip-rule="evenodd" d="M27.7097 25.6409L27.5827 25.9829C25.4187 30.3621 21.5848 33.0492 16.116 33.1677C13.5595 33.2224 11.1235 32.5407 9.53227 31.7992C6.09803 30.1956 3.20967 27.2216 1.63212 24.0441C-0.630726 19.4891 -1.03875 13.1528 3.66633 8.42004C3.73883 8.42004 3.09566 9.44626 3.16816 9.44626L3.03866 9.88418C-0.351897 20.9169 10.094 30.3714 20.2483 29.2901C22.6886 29.0303 25.8007 27.6412 27.7097 25.6409Z" fill="#21609B"/>
<path fill-rule="evenodd" clip-rule="evenodd" d="M21.565 21.079C24.1196 21.0973 26.788 19.8563 28.3681 18.114C26.9857 21.7613 22.983 24.1058 17.6149 23.36C13.1205 22.735 8.8389 18.0341 8.39774 13.3239C8.07522 9.89593 9.22493 7.84994 11.1191 5.36829C10.4608 6.66627 10.2148 7.66736 10.1534 8.30589C9.43374 15.7212 15.8527 21.0403 21.565 21.079Z" fill="#21609B"/>
<path fill-rule="evenodd" clip-rule="evenodd" d="M28.1116 11.8686C27.7144 12.8153 25.4277 14.6034 24.418 14.8268C20.4196 15.712 17.8587 13.7414 16.5176 11.499C16.318 11.1638 15.9494 10.2493 15.8834 10.0165C15.3632 8.17818 15.6024 5.39771 17.1542 3.95837C16.6867 5.32687 16.6186 6.91659 16.8645 7.94988C17.0136 8.57489 17.4677 9.6655 17.9222 10.3517C18.7494 11.6017 19.2739 11.9053 20.3363 12.569C20.8146 12.8678 21.328 13.1074 21.5498 13.1734C22.557 13.4812 24.6835 14.2933 28.1116 11.8686Z" fill="#21609B"/>
</svg>
