<svg width="65" height="68" viewBox="0 0 65 68" fill="none" xmlns="http://www.w3.org/2000/svg">
<path d="M0 0.302246H65V67.8598H0V0.302246Z" fill="#F7DF1E"/>
<path d="M17.0909 56.7583L22.0651 53.6296C23.0247 55.398 23.8977 56.8942 25.9916 56.8942C27.9988 56.8942 29.2642 56.0781 29.2642 52.904V31.3177H35.3726V52.9938C35.3726 59.5694 31.6641 62.5624 26.2535 62.5624C21.367 62.5624 18.5306 59.932 17.0908 56.7578" fill="white"/>
<path d="M38.6905 56.078L43.6641 53.085C44.9734 55.3073 46.6751 56.9397 49.6855 56.9397C52.2165 56.9397 53.8304 55.6245 53.8304 53.8105C53.8304 51.6338 52.1725 50.8627 49.38 49.5934L47.8533 48.9127C43.4462 46.9631 40.5228 44.5143 40.5228 39.3444C40.5228 34.5828 44.0133 30.9547 49.4675 30.9547C53.3508 30.9547 56.1432 32.3607 58.1501 36.034L53.3941 39.2082C52.3469 37.2584 51.2128 36.4876 49.4676 36.4876C47.6787 36.4876 46.5441 37.6666 46.5441 39.2082C46.5441 41.1129 47.6787 41.884 50.2963 43.0632L51.8233 43.7434C57.0155 46.0563 59.939 48.4142 59.939 53.7198C59.939 59.4341 55.6195 62.5629 49.8165 62.5629C44.1444 62.5629 40.4792 59.7514 38.6906 56.078" fill="white"/>
</svg>
