<svg xmlns="http://www.w3.org/2000/svg" xmlns:xlink="http://www.w3.org/1999/xlink" xmlns:lucid="lucid" width="1380" height="640"><g transform="translate(-200 -220)" lucid:page-tab-id="0_0"><path d="M280 360h220v420H280z" fill="#ff8f80"/><use xlink:href="#a" transform="translate(310.611 397)"/><use xlink:href="#b" transform="translate(302.389 445)"/><path d="M615 360h220v420H615z" fill="#ffc374"/><use xlink:href="#c" transform="translate(651.889 397)"/><use xlink:href="#d" transform="translate(680.611 445)"/><path d="M950 360h220v420H950z" fill="#a3d977"/><use xlink:href="#e" transform="translate(955.833 397)"/><path d="M1285 360h220v420h-220z" fill="#99d2f2"/><use xlink:href="#e" transform="translate(1290.833 397)"/><path d="M282 458.77l1269.33 4.7" stroke="#fff" stroke-width="4" fill="none"/><path d="M282.06 456.77l-.02 4H280v-4z" fill="#fff"/><path d="M1551.28 463.46h2.05" stroke="#fff" stroke-width="4" fill="none"/><path d="M220 300h1013.98v540H220z" stroke="#666" stroke-width="6" fill="none"/><path d="M1240.04 300H1560v540h-319.96z" stroke="#99d5ca" stroke-width="6" fill="none"/><path d="M440 520h224v-20l36 40-36 40v-20H440z" stroke="#fff" stroke-width="3"/><use xlink:href="#f" transform="translate(499.156 547.383)"/><use xlink:href="#g" transform="translate(573.835 547.383)"/><path d="M760 520h224v-20l36 40-36 40v-20H760z" stroke="#fff" stroke-width="3"/><use xlink:href="#f" transform="translate(791.151 547.383)"/><use xlink:href="#h" transform="translate(865.83 547.383)"/><path d="M1100 520h224v-20l36 40-36 40v-20h-224z" stroke="#fff" stroke-width="3"/><use xlink:href="#f" transform="translate(1149.821 547.383)"/><use xlink:href="#i" transform="translate(1224.5 547.383)"/><path d="M1360 700h-224v20l-36-40 36-40v20h224z" stroke="#fff" stroke-width="3"/><use xlink:href="#f" transform="translate(1160.826 687.383)"/><use xlink:href="#j" transform="translate(1235.505 687.383)"/><path d="M700 681.6H476v20l-36-40 36-40v20h224z" stroke="#fff" stroke-width="3"/><use xlink:href="#f" transform="translate(491.491 668.983)"/><use xlink:href="#k" transform="translate(566.17 668.983)"/><path d="M600 240h240v60H600z" fill="none"/><use xlink:href="#l" transform="translate(651.333 280.125)"/><path d="M1275 240h240v60h-240z" fill="none"/><use xlink:href="#m" transform="translate(1309.611 280.125)"/><defs><path fill="#fff" d="M275 0h-61l-44-196L126 0H64L0-248h53L97-49l45-199h58l43 199 44-199h52" id="n"/><path fill="#fff" d="M110-194c64 0 96 36 96 99 0 64-35 99-97 99-61 0-95-36-95-99 0-62 34-99 96-99zm-1 164c35 0 45-28 45-65 0-40-10-65-43-65-34 0-45 26-45 65 0 36 10 65 43 65" id="o"/><path fill="#fff" d="M135-150c-39-12-60 13-60 57V0H25l-1-190h47c2 13-1 29 3 40 6-28 27-53 61-41v41" id="p"/><path fill="#fff" d="M147 0L96-86 75-71V0H25v-261h50v150l67-79h53l-66 74L201 0h-54" id="q"/><path fill="#fff" d="M25-224v-37h50v37H25zM25 0v-190h50V0H25" id="r"/><path fill="#fff" d="M135-194c87-1 58 113 63 194h-50c-7-57 23-157-34-157-59 0-34 97-39 157H25l-1-190h47c2 12-1 28 3 38 12-26 28-41 61-42" id="s"/><path fill="#fff" d="M195-6C206 82 75 100 31 46c-4-6-6-13-8-21l49-6c3 16 16 24 34 25 40 0 42-37 40-79-11 22-30 35-61 35-53 0-70-43-70-97 0-56 18-96 73-97 30 0 46 14 59 34l2-30h47zm-90-29c32 0 41-27 41-63 0-35-9-62-40-62-32 0-39 29-40 63 0 36 9 62 39 62" id="t"/><path fill="#fff" d="M24-248c120-7 223 5 221 122C244-46 201 0 124 0H24v-248zM76-40c74 7 117-18 117-86 0-67-45-88-117-82v168" id="u"/><path fill="#fff" d="M185-48c-13 30-37 53-82 52C43 2 14-33 14-96s30-98 90-98c62 0 83 45 84 108H66c0 31 8 55 39 56 18 0 30-7 34-22zm-45-69c5-46-57-63-70-21-2 6-4 13-4 21h74" id="v"/><path fill="#fff" d="M190-63c-7 42-38 67-86 67-59 0-84-38-90-98-12-110 154-137 174-36l-49 2c-2-19-15-32-35-32-30 0-35 28-38 64-6 74 65 87 74 30" id="w"/><path fill="#fff" d="M115-3C79 11 28 4 28-45v-112H4v-33h27l15-45h31v45h36v33H77v99c-1 23 16 31 38 25v30" id="x"/><path fill="#fff" d="M123 10C108 53 80 86 19 72V37c35 8 53-11 59-39L3-190h52l48 148c12-52 28-100 44-148h51" id="y"/><path fill="#fff" d="M169-182c-1-43-94-46-97-3 18 66 151 10 154 114 3 95-165 93-204 36-6-8-10-19-12-30l50-8c3 46 112 56 116 5-17-69-150-10-154-114-4-87 153-88 188-35 5 8 8 18 10 28" id="z"/><path fill="#fff" d="M133-34C117-15 103 5 69 4 32 3 11-16 11-54c-1-60 55-63 116-61 1-26-3-47-28-47-18 1-26 9-28 27l-52-2c7-38 36-58 82-57s74 22 75 68l1 82c-1 14 12 18 25 15v27c-30 8-71 5-69-32zm-48 3c29 0 43-24 42-57-32 0-66-3-65 30 0 17 8 27 23 27" id="A"/><path fill="#fff" d="M199 0l-22-63H83L61 0H9l90-248h61L250 0h-51zm-33-102l-36-108c-10 38-24 72-36 108h72" id="B"/><path fill="#fff" d="M240-174c0 40-23 61-54 70L253 0h-59l-57-94H76V0H24v-248c93 4 217-23 216 74zM76-134c48-2 112 12 112-38 0-48-66-32-112-35v73" id="C"/><path fill="#fff" d="M135-194c53 0 70 44 70 98 0 56-19 98-73 100-31 1-45-17-59-34 3 33 2 69 2 105H25l-1-265h48c2 10 0 23 3 31 11-24 29-35 60-35zM114-30c33 0 39-31 40-66 0-38-9-64-40-64-56 0-55 130 0 130" id="D"/><path fill="#fff" d="M137-138c1-29-70-34-71-4 15 46 118 7 119 86 1 83-164 76-172 9l43-7c4 19 20 25 44 25 33 8 57-30 24-41C81-84 22-81 20-136c-2-80 154-74 161-7" id="E"/><path fill="#fff" d="M1108-33c-3 314-178 467-492 467-243 0-400-94-447-291l281-33c17 79 82 141 174 141 176 0 212-155 205-347-2-40 5-80 0-115C773-85 665-12 501-12c-288 0-377-242-377-538 0-242 65-426 223-510 50-26 108-39 175-39 160 0 253 78 307 191h5c1-58 5-125 14-174h266c-12 335-3 703-6 1049zM811-384c25-82 27-259 1-342-30-99-77-180-190-180-172 0-205 171-205 356 0 116 18 202 54 258 48 76 129 107 221 70 62-25 96-86 119-162" id="F"/><path fill="#fff" d="M794-190h353V0H118v-190h395v-702H223v-190h571v892zM513-1277v-207h281v207H513" id="G"/><path fill="#fff" d="M711 13c-250 0-386-99-385-349l2-556H161v-190h181l88-282h176v282h385v190H606v530c-10 130 45 186 174 184 91-2 176-11 255-27v186C933-1 833 13 711 13" id="H"/><path fill="#fff" d="M775-193C708-75 621 20 439 20 226 20 106-93 106-306c0-251 170-341 417-346l223-4c4-143-12-264-148-264-103 0-141 58-150 153l-293-14c37-219 194-321 455-321 263 0 418 130 417 390v392c1 84 5 161 89 160 21 0 42-2 62-6v152c-57 15-108 27-180 26-145 0-202-73-217-205h-6zm-256 17c168 0 234-139 227-325-166 4-347-25-347 173 0 94 33 152 120 152" id="I"/><path fill="#fff" d="M802-909c-3-189-2-383-2-575h281v1248c-1 83 4 168 8 236H817c-9-50-14-117-15-176h-4C735-49 651 20 482 20 191 20 97-238 97-539c0-243 66-432 221-519 50-28 108-42 175-42 162 2 253 78 309 191zm-70 658c91-113 93-462 2-584-46-61-145-100-224-53-96 56-119 190-120 349 0 123 17 214 52 275 46 82 130 115 222 74 25-12 46-33 68-61" id="J"/><path fill="#fff" d="M1109-360C1066-122 902 20 624 20c-347 0-514-209-514-555 0-353 168-567 518-567 270 0 425 136 473 361l-283 14c-16-106-75-183-196-182-75 0-130 31-165 93s-52 152-52 270c0 249 74 374 221 374 120 0 188-82 201-201" id="K"/><path fill="#fff" d="M616-1102c361 0 521 202 521 560 0 354-171 562-527 562C259 20 92-192 92-542c0-351 169-560 524-560zm-9 930c200-2 236-165 236-370 0-199-27-367-223-367-195 0-233 146-233 367 0 129 18 223 55 282s92 88 165 88" id="L"/><path fill="#fff" d="M934-1102c199 0 220 177 220 381V0H926c-2-260 10-533-4-785-4-72-14-138-83-138-34 0-61 27-81 81s-29 134-29 241V0H501c-2-260 9-533-5-785-4-72-13-138-82-138-46 0-65 47-80 93-21 67-30 155-30 248V0H75c-3-360 6-732-6-1082h209c6 50 3 123 8 175 36-100 83-195 216-195 135 0 166 79 196 196 42-105 93-196 236-196" id="M"/><path fill="#fff" d="M427-171c3 195 2 397 2 596H148V-846c1-83-4-168-8-236h272c10 49 14 118 15 176h4c59-114 151-197 316-197 291 0 385 259 385 560 0 243-65 433-220 521-50 28-109 42-176 42-162-2-253-78-309-191zm69-661c-91 113-92 463-1 586 46 62 145 101 225 54 96-57 118-191 119-351 0-123-18-215-53-276-46-82-128-115-220-74-25 12-48 33-70 61" id="N"/><path fill="#fff" d="M471 20c-247 0-336-169-336-415v-687h281v607c4 148 31 285 172 285 152 0 207-150 207-312v-580h281c4 359-9 736 8 1082H816c-7-63-11-146-12-215h-5C736-76 644 20 471 20" id="O"/><path fill="#fff" d="M622-916c-112 2-200 14-200 111 0 90 89 101 168 121 234 58 514 77 514 368C1104-4 751 54 434 5 267-21 161-112 121-270l247-37c24 111 113 145 252 141 114-3 226-12 226-124 0-101-103-113-192-134-225-54-490-76-490-351 0-247 201-328 458-328 245 0 413 88 457 292l-249 26c-16-98-92-133-208-131" id="P"/><path fill="#fff" d="M424-1484c-2 206 5 424-8 618h4c67-145 160-234 348-236 251-3 335 167 336 416V0H824v-621c0-150-23-276-173-270-163 7-227 142-227 312V0H143v-1484h281" id="Q"/><path fill="#fff" d="M794-190h353V0H118v-190h395v-1104H223v-190h571v1294" id="R"/><path fill="#fff" d="M875-1102c70 0 148 7 206 17v237c-110-17-267-37-359 15-123 69-192 207-192 395V0H250c-10-367 32-789-52-1082h271c19 69 36 149 46 228h4c52-151 151-250 356-248" id="S"/><path fill="#fff" d="M1113-274C1038-96 884 20 626 20c-352 0-526-209-526-566 0-358 185-556 530-556 358 0 496 251 499 615H395c5 180 68 319 245 319 102 0 186-45 208-129zM857-663c-6-177-128-307-315-247-94 30-141 121-145 247h460" id="T"/><path fill="#666" d="M24 0v-248h52v208h133V0H24" id="U"/><path fill="#666" d="M140-251c80 0 125 45 125 126S219 4 139 4C58 4 15-44 15-125s44-126 125-126zm-1 214c52 0 73-35 73-88 0-50-21-86-72-86-52 0-73 35-73 86s22 88 72 88" id="V"/><path fill="#666" d="M67-125c0 53 21 87 73 88 37 1 54-22 65-47l45 17C233-25 199 4 140 4 58 4 20-42 15-125 8-235 124-281 211-232c18 10 29 29 36 50l-46 12c-8-25-30-41-62-41-52 0-71 34-72 86" id="W"/><path fill="#666" d="M199 0l-22-63H83L61 0H9l90-248h61L250 0h-51zm-33-102l-36-108c-10 38-24 72-36 108h72" id="X"/><path fill="#5abaa7" d="M240-174c0 40-23 61-54 70L253 0h-59l-57-94H76V0H24v-248c93 4 217-23 216 74zM76-134c48-2 112 12 112-38 0-48-66-32-112-35v73" id="Y"/><path fill="#5abaa7" d="M24 0v-248h195v40H76v63h132v40H76v65h150V0H24" id="Z"/><path fill="#5abaa7" d="M230 0l2-204L168 0h-37L68-204 70 0H24v-248h70l56 185 57-185h69V0h-46" id="aa"/><path fill="#5abaa7" d="M140-251c80 0 125 45 125 126S219 4 139 4C58 4 15-44 15-125s44-126 125-126zm-1 214c52 0 73-35 73-88 0-50-21-86-72-86-52 0-73 35-73 86s22 88 72 88" id="ab"/><path fill="#5abaa7" d="M136-208V0H84v-208H4v-40h212v40h-80" id="ac"/><g id="a"><use transform="scale(.11111)" xlink:href="#n"/><use transform="translate(36.889) scale(.11111)" xlink:href="#o"/><use transform="translate(61.222) scale(.11111)" xlink:href="#p"/><use transform="translate(76.778) scale(.11111)" xlink:href="#q"/><use transform="translate(99) scale(.11111)" xlink:href="#r"/><use transform="translate(110.111) scale(.11111)" xlink:href="#s"/><use transform="translate(134.444) scale(.11111)" xlink:href="#t"/></g><g id="b"><use transform="scale(.11111)" xlink:href="#u"/><use transform="translate(28.778) scale(.11111)" xlink:href="#r"/><use transform="translate(39.889) scale(.11111)" xlink:href="#p"/><use transform="translate(55.444) scale(.11111)" xlink:href="#v"/><use transform="translate(77.667) scale(.11111)" xlink:href="#w"/><use transform="translate(99.889) scale(.11111)" xlink:href="#x"/><use transform="translate(113.111) scale(.11111)" xlink:href="#o"/><use transform="translate(137.444) scale(.11111)" xlink:href="#p"/><use transform="translate(153) scale(.11111)" xlink:href="#y"/></g><g id="c"><use transform="scale(.11111)" xlink:href="#z"/><use transform="translate(26.667) scale(.11111)" xlink:href="#x"/><use transform="translate(39.889) scale(.11111)" xlink:href="#A"/><use transform="translate(62.111) scale(.11111)" xlink:href="#t"/><use transform="translate(86.444) scale(.11111)" xlink:href="#r"/><use transform="translate(97.556) scale(.11111)" xlink:href="#s"/><use transform="translate(121.889) scale(.11111)" xlink:href="#t"/></g><g id="d"><use transform="scale(.11111)" xlink:href="#B"/><use transform="translate(28.778) scale(.11111)" xlink:href="#p"/><use transform="translate(44.333) scale(.11111)" xlink:href="#v"/><use transform="translate(66.556) scale(.11111)" xlink:href="#A"/></g><g id="e"><use transform="scale(.11111)" xlink:href="#C"/><use transform="translate(28.778) scale(.11111)" xlink:href="#v"/><use transform="translate(51) scale(.11111)" xlink:href="#D"/><use transform="translate(75.333) scale(.11111)" xlink:href="#o"/><use transform="translate(99.667) scale(.11111)" xlink:href="#E"/><use transform="translate(121.889) scale(.11111)" xlink:href="#r"/><use transform="translate(133) scale(.11111)" xlink:href="#x"/><use transform="translate(146.222) scale(.11111)" xlink:href="#o"/><use transform="translate(170.556) scale(.11111)" xlink:href="#p"/><use transform="translate(186.111) scale(.11111)" xlink:href="#y"/></g><g id="f"><use transform="scale(.01519)" xlink:href="#F"/><use transform="translate(18.67) scale(.01519)" xlink:href="#G"/><use transform="translate(37.34) scale(.01519)" xlink:href="#H"/></g><g id="g"><use transform="scale(.01519)" xlink:href="#I"/><use transform="translate(18.67) scale(.01519)" xlink:href="#J"/><use transform="translate(37.34) scale(.01519)" xlink:href="#J"/></g><g id="h"><use transform="scale(.01519)" xlink:href="#K"/><use transform="translate(18.67) scale(.01519)" xlink:href="#L"/><use transform="translate(37.34) scale(.01519)" xlink:href="#M"/><use transform="translate(56.01) scale(.01519)" xlink:href="#M"/><use transform="translate(74.679) scale(.01519)" xlink:href="#G"/><use transform="translate(93.349) scale(.01519)" xlink:href="#H"/></g><g id="i"><use transform="scale(.01519)" xlink:href="#N"/><use transform="translate(18.67) scale(.01519)" xlink:href="#O"/><use transform="translate(37.34) scale(.01519)" xlink:href="#P"/><use transform="translate(56.01) scale(.01519)" xlink:href="#Q"/></g><g id="j"><use transform="scale(.01519)" xlink:href="#N"/><use transform="translate(18.67) scale(.01519)" xlink:href="#O"/><use transform="translate(37.34) scale(.01519)" xlink:href="#R"/><use transform="translate(56.01) scale(.01519)" xlink:href="#R"/></g><g id="k"><use transform="scale(.01519)" xlink:href="#S"/><use transform="translate(18.67) scale(.01519)" xlink:href="#T"/><use transform="translate(37.34) scale(.01519)" xlink:href="#P"/><use transform="translate(56.01) scale(.01519)" xlink:href="#T"/><use transform="translate(74.679) scale(.01519)" xlink:href="#H"/></g><g id="l"><use transform="scale(.11111)" xlink:href="#U"/><use transform="translate(24.333) scale(.11111)" xlink:href="#V"/><use transform="translate(55.444) scale(.11111)" xlink:href="#W"/><use transform="translate(84.222) scale(.11111)" xlink:href="#X"/><use transform="translate(113) scale(.11111)" xlink:href="#U"/></g><g id="m"><use transform="scale(.11111)" xlink:href="#Y"/><use transform="translate(28.778) scale(.11111)" xlink:href="#Z"/><use transform="translate(55.444) scale(.11111)" xlink:href="#aa"/><use transform="translate(88.667) scale(.11111)" xlink:href="#ab"/><use transform="translate(119.778) scale(.11111)" xlink:href="#ac"/><use transform="translate(144.111) scale(.11111)" xlink:href="#Z"/></g></defs></g></svg>