<svg width="19" height="21" viewBox="0 0 19 21" fill="none" xmlns="http://www.w3.org/2000/svg">
<path d="M3.00679e-05 10.2889C3.03164e-05 15.9722 4.3617 20.5754 9.7411 20.5754C14.0458 20.5754 17.6962 17.6283 18.9832 13.542C19.0749 13.0277 18.7734 12.8391 18.5148 12.8391C18.2835 12.8391 17.6706 12.8477 16.8586 12.852C17.4459 15.7133 15.5517 16.3168 15.5517 16.3168C14.4274 16.7849 14.1267 17.4612 14.1267 17.4612C13.5229 18.393 13.5353 17.3892 13.5353 17.3892C13.603 16.3562 14.5389 15.8136 14.5389 15.8136C16.0284 14.8964 15.598 13.4057 15.3493 12.8177C14.719 12.7251 14.2903 12.4602 14.0466 12.1662C13.8029 14.4507 12.9653 16.8517 9.23307 16.8517C8.16991 16.8517 7.30088 16.4531 6.61937 15.7931C6.3732 15.9088 5.38273 16.256 4.04119 15.7031C4.04119 15.7031 3.78015 14.8416 5.03991 12.8743C4.82348 12.0513 4.71609 11.177 4.71113 10.3026C4.71609 9.42827 4.82348 8.55391 5.03991 7.73099C3.78015 5.77655 4.04119 4.91505 4.04119 4.91505C5.38273 4.36215 6.37319 4.70932 6.61937 4.81218C7.30088 4.15642 8.16991 3.75782 9.23307 3.75782C12.9752 3.75782 13.7988 6.16229 14.0383 8.45104C14.3308 8.09102 14.928 7.7567 15.8408 7.7567C17.1444 7.7567 18.1918 7.76956 18.5082 7.76956C18.7635 7.76956 19.0683 7.58955 18.9708 7.06236C17.6921 2.94689 14.0392 0.00237213 9.7411 0.00237232C4.3617 0.00237255 2.98196e-05 4.60817 3.00679e-05 10.2889Z" fill="white"/>
</svg>
